<svg xmlns="http://www.w3.org/2000/svg" viewBox="0 0 400 300" role="img" aria-label="Ekanta Seva">
  <defs>
    <linearGradient id="g1odfpm" x1="0" y1="0" x2="1" y2="1">
      <stop offset="0" stop-color="#4f1414"/>
      <stop offset="1" stop-color="#b98a3d"/>
    </linearGradient>
  </defs>
  <rect width="400" height="300" fill="url(#g1odfpm)"/>
  <circle cx="200" cy="150" r="120" fill="#ffffff" opacity="0.06"/>
  <circle cx="200" cy="150" r="80" fill="#ffffff" opacity="0.07"/>
  <g transform="translate(150,100)" fill="none" stroke="#fbf1de" stroke-width="2.4" stroke-linecap="round" stroke-linejoin="round" opacity="0.9">
    <path d="M 50 14 C 74 18 84 42 77 60 C 71 76 54 87 39 81 C 26 76 20 60 27 47 C 31 39 39 35 45 37" /><path d="M 56 30 C 62 34 63 43 56 47 C 50 50 45 46 46 41 C 47 37 51 36 53 39" />
  </g>
  <text x="200" y="270" text-anchor="middle" font-family="Georgia, serif" font-size="15" fill="#fbf1de" opacity="0.85">Ekanta Seva</text>
</svg>